<svg version="1.1" id="Layer_1" xmlns="http://www.w3.org/2000/svg" xmlns:xlink="http://www.w3.org/1999/xlink" x="0px" y="0px"
	 width="100%" viewBox="0 0 362 356" enable-background="new 0 0 362 356" xml:space="preserve">
<path fill="#E84545" opacity="1.000000" stroke="none" 
	d="
M202.000000,357.000000 
	C134.666672,357.000000 67.833359,357.000000 1.000027,357.000000 
	C1.000018,238.333374 1.000018,119.666733 1.000009,1.000075 
	C121.666618,1.000050 242.333237,1.000050 362.999878,1.000025 
	C362.999939,119.666595 362.999939,238.333191 362.999969,356.999878 
	C309.500000,357.000000 256.000000,357.000000 202.000000,357.000000 
M242.624741,214.728424 
	C246.426025,210.822571 250.227310,206.916718 254.723312,202.622696 
	C255.060211,198.409882 255.397095,194.197052 255.874268,189.063187 
	C255.827881,184.372681 255.781494,179.682190 255.878601,174.072891 
	C255.832275,169.712463 255.785950,165.352020 255.885681,160.068924 
	C255.838943,155.042755 255.792206,150.016602 255.889542,144.065552 
	C255.840668,138.371841 255.791794,132.678146 255.885025,126.058701 
	C255.899231,113.255508 255.944412,100.452171 255.880127,87.649368 
	C255.873642,86.357796 255.205688,85.069550 254.760437,83.740265 
	C254.760437,83.740265 254.838867,83.705971 254.874329,82.865433 
	C252.967758,80.824799 250.790161,78.973839 249.204681,76.708481 
	C244.157089,69.496376 237.287262,67.533447 228.085068,68.967758 
	C222.726105,69.018959 217.367157,69.070152 211.083771,68.962372 
	C205.724472,69.014214 200.365189,69.066055 194.082397,68.963715 
	C189.056030,69.016319 184.029678,69.068924 178.081055,68.971703 
	C173.389664,69.021606 168.698273,69.071510 163.079407,68.969833 
	C149.709534,69.099899 136.339661,69.229973 122.360268,69.541893 
	C118.385071,73.494080 114.309189,77.352737 110.497192,81.456535 
	C109.381081,82.658104 108.483612,84.531830 108.408569,86.140533 
	C108.209686,90.403847 108.515007,94.690681 108.380150,99.882545 
	C108.460098,107.254753 108.540039,114.626968 108.380630,122.908081 
	C108.459961,131.604294 108.539291,140.300507 108.381752,149.906433 
	C108.430267,159.912613 108.478783,169.918808 108.304428,180.848404 
	C108.273911,185.280273 108.083405,189.718979 108.272812,194.141434 
	C108.386665,196.799881 109.092751,199.432968 109.759636,202.701096 
	C111.027290,203.876175 112.294952,205.051254 113.872543,206.837402 
	C114.916412,207.913422 116.101456,208.885895 116.979713,210.083374 
	C120.762085,215.240646 125.717628,216.519821 132.061356,216.462540 
	C166.381622,216.152527 200.706192,216.322174 235.029251,216.298508 
	C237.010849,216.297134 238.992294,216.049683 241.468887,215.823761 
	C241.652618,215.552246 241.836349,215.280716 242.624741,214.728424 
M159.891907,265.769745 
	C161.886322,265.766205 163.915207,265.539246 165.862747,265.839630 
	C167.110657,266.032104 169.110291,266.824463 169.279526,267.652954 
	C170.418610,273.229553 174.148254,272.261383 178.323624,271.634491 
	C174.543350,261.589050 170.950623,251.794113 167.078079,242.111084 
	C166.662781,241.072632 164.626526,240.163177 163.326538,240.141724 
	C161.986908,240.119614 159.803238,240.931015 159.405685,241.937424 
	C155.539093,251.725571 151.970062,261.631226 148.283707,271.591309 
	C152.835907,272.498505 156.518341,272.819519 157.229401,267.274841 
	C157.300003,266.724274 158.385742,266.303864 159.891907,265.769745 
M187.277466,253.513443 
	C187.277466,259.602417 187.277466,265.691406 187.277466,271.789734 
	C194.665405,271.789734 201.256149,271.789734 208.275558,271.789734 
	C208.136032,269.798401 208.016388,268.090881 207.865448,265.936523 
	C203.275772,265.936523 199.192642,265.936523 194.547699,265.936523 
	C194.547699,257.064697 194.547699,248.667313 194.547699,240.302063 
	C191.873718,240.302063 189.797180,240.302063 187.277496,240.302063 
	C187.277496,244.584442 187.277496,248.552490 187.277466,253.513443 
z"/>
<path fill="#FEFEFE" opacity="1.000000" stroke="none" 
	d="
M254.844711,83.779770 
	C255.205688,85.069550 255.873642,86.357796 255.880127,87.649368 
	C255.944412,100.452171 255.899231,113.255508 255.365784,126.522614 
	C250.567749,126.991554 246.288986,126.996574 242.002640,126.532806 
	C241.718521,118.760941 241.441971,111.457878 241.173706,103.728882 
	C241.205093,101.883987 241.228195,100.465012 241.287033,98.907372 
	C241.308395,98.453468 241.152344,98.235367 240.396545,98.095367 
	C235.202179,98.155327 230.465881,98.234314 225.278015,98.309555 
	C195.912338,98.291443 166.998199,98.277077 138.042114,97.903526 
	C137.956207,97.307304 137.912231,97.070259 137.882141,96.389053 
	C137.885025,92.358101 137.874039,88.771317 137.903305,84.923683 
	C137.952866,84.487144 137.962189,84.311440 138.441971,84.089668 
	C157.267166,83.958458 175.621933,83.873314 194.443802,83.844353 
	C214.888855,83.860283 234.866776,83.820023 254.844711,83.779770 
z"/>
<path fill="#D5D7D8" opacity="1.000000" stroke="none" 
	d="
M137.868271,96.833214 
	C137.912231,97.070259 137.956207,97.307304 138.010406,98.354553 
	C138.049423,128.426498 138.078201,157.688217 137.743103,186.963425 
	C136.893677,186.976517 136.408127,186.976135 135.568970,186.792419 
	C134.239868,186.433395 133.257538,186.074219 132.289993,186.110458 
	C122.799942,186.465881 123.956520,184.891846 123.950844,177.412537 
	C123.925720,144.304077 123.955559,111.195541 123.904938,78.087128 
	C123.901443,75.800484 123.403641,73.514603 123.094009,70.918198 
	C123.024796,70.192039 122.997292,69.776047 122.969788,69.360046 
	C136.339661,69.229973 149.709534,69.099899 163.542175,69.501801 
	C164.005936,74.330994 164.006912,78.628220 163.538895,82.949203 
	C159.261108,82.982872 155.445419,82.852165 151.645325,83.038940 
	C147.080444,83.263313 142.528870,83.758057 137.971527,84.135735 
	C137.962189,84.311440 137.952866,84.487144 137.740906,85.268875 
	C137.648254,89.527679 137.758270,93.180443 137.868271,96.833214 
z"/>
<path fill="#F8F8F8" opacity="1.000000" stroke="none" 
	d="
M240.973801,215.916763 
	C238.992294,216.049683 237.010849,216.297134 235.029251,216.298508 
	C200.706192,216.322174 166.381622,216.152527 132.061356,216.462540 
	C125.717628,216.519821 120.762085,215.240646 116.979713,210.083374 
	C116.101456,208.885895 114.916412,207.913422 114.131432,206.361023 
	C116.845764,205.589279 119.300896,205.039536 121.756699,205.036484 
	C161.476349,204.987122 201.196091,205.007202 240.945999,205.451447 
	C241.014587,208.229614 241.052979,210.567917 241.067413,213.253815 
	C241.039520,214.065918 241.035583,214.530426 241.009720,215.224915 
	C240.987793,215.454910 240.973801,215.916763 240.973801,215.916763 
z"/>
<path fill="#F3F4F4" opacity="1.000000" stroke="none" 
	d="
M240.915802,205.011551 
	C201.196091,205.007202 161.476349,204.987122 121.756699,205.036484 
	C119.300896,205.039536 116.845764,205.589279 113.976463,206.055496 
	C112.294952,205.051254 111.027290,203.876175 110.143234,202.383850 
	C115.043098,202.003754 119.559372,201.940887 124.536758,201.903198 
	C155.405869,201.901077 185.813843,201.875443 216.221832,201.845627 
	C227.544189,201.834534 227.544189,201.830048 226.358749,190.217606 
	C226.162292,191.970947 226.010773,193.743362 226.192062,195.481033 
	C226.648376,199.855057 224.775803,201.491043 220.440140,201.197617 
	C215.971786,200.895172 211.473022,201.042236 206.952301,200.635101 
	C204.280106,195.891251 201.643143,191.504898 199.469543,187.046082 
	C208.612335,186.973618 217.291779,186.973618 225.970413,186.973618 
	C226.244263,184.389893 226.434418,182.595871 226.734222,180.480743 
	C228.260300,179.115570 229.577484,177.392868 231.113663,177.168320 
	C234.341324,176.696579 237.683975,177.011688 240.998276,177.471924 
	C240.983353,186.963867 240.949570,195.987717 240.915802,205.011551 
z"/>
<path fill="#DBDDDD" opacity="1.000000" stroke="none" 
	d="
M108.527290,179.924988 
	C108.478783,169.918808 108.430267,159.912613 108.814255,149.502914 
	C110.548920,150.250046 111.932343,151.321976 113.137665,152.566422 
	C116.467796,156.004608 119.723518,159.514893 123.028633,163.465363 
	C123.056046,167.548264 123.071678,171.162445 123.069450,174.776627 
	C123.062080,186.768204 123.059616,186.768204 135.082230,187.334381 
	C137.775909,192.096024 140.389160,196.513657 142.534760,200.956818 
	C136.376953,200.989731 130.686768,200.997086 124.904160,200.664719 
	C119.383583,193.524994 113.955437,186.724991 108.527290,179.924988 
z"/>
<path fill="#FDF6F7" opacity="1.000000" stroke="none" 
	d="
M159.446106,265.796387 
	C158.385742,266.303864 157.300003,266.724274 157.229401,267.274841 
	C156.518341,272.819519 152.835907,272.498505 148.283707,271.591309 
	C151.970062,261.631226 155.539093,251.725571 159.405685,241.937424 
	C159.803238,240.931015 161.986908,240.119614 163.326538,240.141724 
	C164.626526,240.163177 166.662781,241.072632 167.078079,242.111084 
	C170.950623,251.794113 174.543350,261.589050 178.323624,271.634491 
	C174.148254,272.261383 170.418610,273.229553 169.279526,267.652954 
	C169.110291,266.824463 167.110657,266.032104 165.862747,265.839630 
	C163.915207,265.539246 161.886322,265.766205 159.446106,265.796387 
M163.934525,251.138580 
	C163.844803,251.000244 163.777664,250.835388 163.657394,250.732910 
	C163.577637,250.664963 163.325684,250.645325 163.313553,250.673691 
	C162.076050,253.566284 160.854095,256.465515 159.499466,259.676575 
	C162.355148,259.676575 164.373535,259.676575 166.751831,259.676575 
	C165.793121,256.796509 164.965469,254.310104 163.934525,251.138580 
z"/>
<path fill="#ECEDEE" opacity="1.000000" stroke="none" 
	d="
M122.665024,69.450974 
	C122.997292,69.776047 123.024796,70.192039 123.090263,71.362846 
	C123.074997,85.409050 123.021767,98.700455 122.641144,111.898987 
	C119.877243,109.206596 117.546051,106.496490 114.969933,104.043610 
	C113.014832,102.182037 110.747902,100.647964 108.619720,98.968163 
	C108.515007,94.690681 108.209686,90.403847 108.408569,86.140533 
	C108.483612,84.531830 109.381081,82.658104 110.497192,81.456535 
	C114.309189,77.352737 118.385071,73.494080 122.665024,69.450974 
z"/>
<path fill="#E2E3E4" opacity="1.000000" stroke="none" 
	d="
M123.008675,162.996658 
	C119.723518,159.514893 116.467796,156.004608 113.137665,152.566422 
	C111.932343,151.321976 110.548920,150.250046 108.932693,149.048065 
	C108.539291,140.300507 108.459961,131.604294 108.817657,122.502220 
	C110.858185,123.429070 112.545387,124.674377 114.047577,126.112877 
	C117.080391,129.017120 120.012688,132.026321 123.014580,135.461105 
	C123.031372,144.952194 123.020027,153.974426 123.008675,162.996658 
z"/>
<path fill="#E8E9E9" opacity="1.000000" stroke="none" 
	d="
M122.986435,134.992249 
	C120.012688,132.026321 117.080391,129.017120 114.047577,126.112877 
	C112.545387,124.674377 110.858185,123.429070 108.937332,122.047768 
	C108.540039,114.626968 108.460098,107.254753 108.499939,99.425354 
	C110.747902,100.647964 113.014832,102.182037 114.969933,104.043610 
	C117.546051,106.496490 119.877243,109.206596 122.675125,112.367523 
	C123.019821,120.283371 123.003128,127.637810 122.986435,134.992249 
z"/>
<path fill="#FCEEF0" opacity="1.000000" stroke="none" 
	d="
M187.277481,253.016998 
	C187.277496,248.552490 187.277496,244.584442 187.277496,240.302063 
	C189.797180,240.302063 191.873718,240.302063 194.547699,240.302063 
	C194.547699,248.667313 194.547699,257.064697 194.547699,265.936523 
	C199.192642,265.936523 203.275772,265.936523 207.865448,265.936523 
	C208.016388,268.090881 208.136032,269.798401 208.275558,271.789734 
	C201.256149,271.789734 194.665405,271.789734 187.277466,271.789734 
	C187.277466,265.691406 187.277466,259.602417 187.277481,253.016998 
z"/>
<path fill="#F3F4F4" opacity="1.000000" stroke="none" 
	d="
M229.009857,69.128494 
	C237.287262,67.533447 244.157089,69.496376 249.204681,76.708481 
	C250.790161,78.973839 252.967758,80.824799 254.323120,83.147652 
	C245.517593,83.253418 237.263290,83.076958 229.008728,82.443016 
	C229.008926,77.699852 229.009384,73.414177 229.009857,69.128494 
z"/>
<path fill="#F3F4F4" opacity="1.000000" stroke="none" 
	d="
M242.010208,127.001595 
	C246.288986,126.996574 250.567749,126.991554 255.294708,126.985489 
	C255.791794,132.678146 255.840668,138.371841 255.369293,144.528992 
	C250.573364,144.992569 246.297684,144.992722 242.015442,144.525726 
	C242.009308,138.372925 242.009750,132.687256 242.010208,127.001595 
z"/>
<path fill="#E5E6E7" opacity="1.000000" stroke="none" 
	d="
M195.005890,69.117889 
	C200.365189,69.066055 205.724472,69.014214 211.544861,69.497925 
	C212.007721,74.323219 212.009521,78.612968 211.543121,82.932129 
	C205.379578,82.934227 199.684265,82.906914 193.992767,82.452759 
	C194.333008,77.723244 194.669449,73.420570 195.005890,69.117889 
z"/>
<path fill="#ECEDEE" opacity="1.000000" stroke="none" 
	d="
M212.011322,82.902710 
	C212.009521,78.612968 212.007721,74.323219 212.007065,69.577415 
	C217.367157,69.070152 222.726105,69.018959 228.547455,69.048126 
	C229.009384,73.414177 229.008926,77.699852 228.541412,82.479187 
	C222.720016,82.949463 217.365662,82.926086 212.011322,82.902710 
z"/>
<path fill="#DFE0E1" opacity="1.000000" stroke="none" 
	d="
M194.544144,69.040802 
	C194.669449,73.420570 194.333008,77.723244 193.991928,82.523590 
	C193.987274,83.021263 193.988342,83.161049 193.523254,83.133209 
	C188.039322,83.048935 183.020493,82.992500 178.001617,82.481644 
	C178.335495,77.725319 178.669403,73.423424 179.003311,69.121529 
	C184.029678,69.068924 189.056030,69.016319 194.544144,69.040802 
z"/>
<path fill="#DAC7C8" opacity="1.000000" stroke="none" 
	d="
M108.415863,180.386688 
	C113.955437,186.724991 119.383583,193.524994 124.740662,200.799957 
	C124.455742,201.460342 124.257759,201.661362 124.075638,201.878021 
	C119.559372,201.940887 115.043098,202.003754 110.029755,202.072037 
	C109.092751,199.432968 108.386665,196.799881 108.272812,194.141434 
	C108.083405,189.718979 108.273911,185.280273 108.415863,180.386688 
z"/>
<path fill="#ECEDEE" opacity="1.000000" stroke="none" 
	d="
M242.022003,144.992874 
	C246.297684,144.992722 250.573364,144.992569 255.297272,144.991425 
	C255.792206,150.016602 255.838943,155.042755 255.364990,160.530762 
	C250.575165,160.989822 246.306015,160.987045 242.029694,160.519012 
	C242.022354,155.033478 242.022186,150.013168 242.022003,144.992874 
z"/>
<path fill="#E2E3E4" opacity="1.000000" stroke="none" 
	d="
M255.735107,174.991684 
	C255.781494,179.682190 255.827881,184.372681 255.410004,189.506378 
	C250.628662,189.969223 246.311615,189.988876 241.988037,189.541504 
	C241.977142,184.388351 241.972778,179.702225 242.433136,175.012848 
	C247.176941,175.003601 251.456024,174.997650 255.735107,174.991684 
z"/>
<path fill="#DBDDDD" opacity="1.000000" stroke="none" 
	d="
M178.542175,69.046616 
	C178.669403,73.423424 178.335495,77.725319 177.537338,82.506447 
	C172.718018,82.965599 168.362961,82.945526 164.007889,82.925446 
	C164.006912,78.628220 164.005936,74.330994 164.005920,69.577591 
	C168.698273,69.071510 173.389664,69.021606 178.542175,69.046616 
z"/>
<path fill="#E8E9E9" opacity="1.000000" stroke="none" 
	d="
M255.806854,174.532288 
	C251.456024,174.997650 247.176941,175.003601 242.429291,174.772095 
	C241.960709,174.534607 241.964676,174.053436 241.974503,173.586945 
	C242.001846,169.075058 242.019363,165.029663 242.036896,160.984268 
	C246.306015,160.987045 250.575165,160.989822 255.291962,160.992096 
	C255.785950,165.352020 255.832275,169.712463 255.806854,174.532288 
z"/>
<path fill="#DBDDDD" opacity="1.000000" stroke="none" 
	d="
M241.994553,190.008545 
	C246.311615,189.988876 250.628662,189.969223 255.339859,189.966888 
	C255.397095,194.197052 255.060211,198.409882 253.913544,202.813507 
	C249.404373,203.003799 245.704941,203.003281 242.000366,202.539291 
	C241.994995,198.053391 241.994766,194.030975 241.994553,190.008545 
z"/>
<path fill="#D5D7D8" opacity="1.000000" stroke="none" 
	d="
M242.005524,203.002762 
	C245.704941,203.003281 249.404373,203.003799 253.566193,203.007599 
	C250.227310,206.916718 246.426025,210.822571 242.075378,214.858978 
	C241.526001,214.989532 241.031647,214.994919 241.031647,214.994919 
	C241.035583,214.530426 241.039520,214.065918 241.244843,212.906265 
	C241.632660,209.141663 241.819092,206.072205 242.005524,203.002762 
z"/>
<path fill="#DAC7C8" opacity="1.000000" stroke="none" 
	d="
M211.543121,82.932129 
	C217.365662,82.926086 222.720016,82.949463 228.541672,82.936668 
	C237.263290,83.076958 245.517593,83.253418 254.305389,83.567917 
	C254.838867,83.705971 254.760437,83.740265 254.802582,83.760017 
	C234.866776,83.820023 214.888855,83.860283 194.445496,83.687759 
	C193.980072,83.474976 193.988342,83.161049 193.988342,83.161049 
	C193.988342,83.161049 193.987274,83.021263 193.988098,82.950424 
	C199.684265,82.906914 205.379578,82.934227 211.543121,82.932129 
z"/>
<path fill="#DAC7C8" opacity="1.000000" stroke="none" 
	d="
M241.009720,215.224915 
	C241.031647,214.994919 241.526001,214.989532 241.773041,214.999359 
	C241.836349,215.280716 241.652618,215.552246 241.221344,215.870270 
	C240.973801,215.916763 240.987793,215.454910 241.009720,215.224915 
z"/>
<path fill="#E84545" opacity="1.000000" stroke="none" 
	d="
M226.624573,180.801865 
	C226.434418,182.595871 226.244263,184.389893 225.970413,186.973618 
	C217.291779,186.973618 208.612335,186.973618 199.006439,186.966187 
	C190.388977,187.012085 182.697968,187.065384 174.543701,187.039459 
	C166.389420,187.013718 158.698380,187.067184 150.550415,187.043381 
	C146.097977,186.960724 142.102493,186.955338 138.106995,186.949951 
	C138.078201,157.688217 138.049423,128.426498 138.052338,98.713737 
	C166.998199,98.277077 195.912338,98.291443 225.337433,98.721329 
	C226.024368,100.792450 226.200348,102.448044 226.356430,104.564369 
	C226.433914,111.347832 226.531281,117.670563 226.515472,124.449883 
	C226.472336,130.937607 226.542389,136.968750 226.502838,143.456528 
	C226.468979,149.622772 226.544708,155.332352 226.508972,161.495209 
	C226.473175,168.232941 226.548874,174.517395 226.624573,180.801865 
z"/>
<path fill="#DAB9B9" opacity="1.000000" stroke="none" 
	d="
M226.376312,104.103638 
	C226.200348,102.448044 226.024368,100.792450 225.788986,98.725082 
	C230.465881,98.234314 235.202179,98.155327 240.487579,98.331734 
	C241.108231,98.740097 241.179779,98.893066 241.251312,99.046043 
	C241.228195,100.465012 241.205093,101.883987 241.128311,103.658676 
	C241.074646,104.014404 240.937073,103.925247 240.478439,103.932800 
	C235.471970,103.994781 230.924149,104.049210 226.376312,104.103638 
z"/>
<path fill="#E2E3E4" opacity="1.000000" stroke="none" 
	d="
M242.029709,160.519012 
	C242.019363,165.029663 242.001846,169.075058 241.753510,173.593643 
	C241.522675,174.066833 241.080048,174.086029 241.054886,173.615417 
	C241.007767,169.106369 240.985794,165.067947 240.973419,160.558319 
	C240.984589,154.389999 240.986191,148.692856 240.989471,142.527710 
	C240.983276,136.034164 240.975433,130.008606 240.971024,123.515732 
	C240.962006,116.674011 240.949539,110.299629 240.937073,103.925247 
	C240.937073,103.925247 241.074646,104.014404 241.120026,104.084610 
	C241.441971,111.457878 241.718521,118.760941 242.002640,126.532806 
	C242.009750,132.687256 242.009308,138.372925 242.015442,144.525726 
	C242.022186,150.013168 242.022354,155.033478 242.029709,160.519012 
z"/>
<path fill="#DAB9B9" opacity="1.000000" stroke="none" 
	d="
M193.523254,83.133209 
	C193.988342,83.161049 193.980072,83.474976 193.978378,83.631569 
	C175.621933,83.873314 157.267166,83.958458 138.441971,84.089668 
	C142.528870,83.758057 147.080444,83.263313 151.645325,83.038940 
	C155.445419,82.852165 159.261108,82.982872 163.538895,82.949203 
	C168.362961,82.945526 172.718018,82.965599 177.537369,82.960876 
	C183.020493,82.992500 188.039322,83.048935 193.523254,83.133209 
z"/>
<path fill="#DAB9B9" opacity="1.000000" stroke="none" 
	d="
M137.882141,96.389053 
	C137.758270,93.180443 137.648254,89.527679 137.700653,85.529716 
	C137.874039,88.771317 137.885025,92.358101 137.882141,96.389053 
z"/>
<path fill="#E2E3E4" opacity="1.000000" stroke="none" 
	d="
M241.287048,98.907372 
	C241.179779,98.893066 241.108231,98.740097 240.945618,98.350754 
	C241.152344,98.235367 241.308395,98.453468 241.287048,98.907372 
z"/>
<path fill="#DFE0E1" opacity="1.000000" stroke="none" 
	d="
M137.743103,186.963425 
	C142.102493,186.955338 146.097977,186.960724 150.635040,187.378876 
	C153.783173,192.175140 156.389740,196.558609 158.530273,200.968140 
	C153.043625,200.973221 148.023026,200.952255 143.002411,200.931274 
	C140.389160,196.513657 137.775909,192.096024 135.312332,187.325592 
	C135.461990,186.972763 135.922577,186.975754 135.922577,186.975754 
	C136.408127,186.976135 136.893677,186.976517 137.743103,186.963425 
z"/>
<path fill="#DAB9B9" opacity="1.000000" stroke="none" 
	d="
M135.568970,186.792419 
	C135.922577,186.975754 135.461990,186.972763 135.231888,186.981567 
	C123.059616,186.768204 123.062080,186.768204 123.069450,174.776627 
	C123.071678,171.162445 123.056046,167.548264 123.028633,163.465363 
	C123.020027,153.974426 123.031372,144.952194 123.014580,135.461105 
	C123.003128,127.637810 123.019821,120.283371 123.002533,112.460388 
	C123.021767,98.700455 123.074997,85.409050 123.131973,71.673004 
	C123.403641,73.514603 123.901443,75.800484 123.904938,78.087128 
	C123.955559,111.195541 123.925720,144.304077 123.950844,177.412537 
	C123.956520,184.891846 122.799942,186.465881 132.289993,186.110458 
	C133.257538,186.074219 134.239868,186.433395 135.568970,186.792419 
z"/>
<path fill="#DAC7C8" opacity="1.000000" stroke="none" 
	d="
M241.080048,174.086029 
	C241.080048,174.086029 241.522675,174.066833 241.743683,174.060135 
	C241.964676,174.053436 241.960709,174.534607 241.964569,174.775360 
	C241.972778,179.702225 241.977142,184.388351 241.988037,189.541504 
	C241.994766,194.030975 241.994995,198.053391 242.000366,202.539291 
	C241.819092,206.072205 241.632660,209.141663 241.268799,212.558655 
	C241.052979,210.567917 241.014587,208.229614 240.945999,205.451447 
	C240.949570,195.987717 240.983353,186.963867 241.026840,177.107117 
	C241.051056,175.544800 241.065552,174.815414 241.080048,174.086029 
z"/>
<path fill="#ECEDEE" opacity="1.000000" stroke="none" 
	d="
M175.006927,187.118683 
	C182.697968,187.065384 190.388977,187.012085 198.543091,187.038666 
	C201.643143,191.504898 204.280106,195.891251 206.486359,200.673889 
	C198.366699,201.035812 190.677704,201.001450 182.909500,200.626617 
	C180.222504,195.897003 177.614716,191.507843 175.006927,187.118683 
z"/>
<path fill="#ECEDEE" opacity="1.000000" stroke="none" 
	d="
M241.054886,173.615417 
	C241.065552,174.815414 241.051056,175.544800 241.007996,176.638992 
	C237.683975,177.011688 234.341324,176.696579 231.113663,177.168320 
	C229.577484,177.392868 228.260300,179.115570 226.734238,180.480743 
	C226.548874,174.517395 226.473175,168.232941 226.934372,161.488220 
	C231.968781,161.028488 236.466309,161.029007 240.963837,161.029526 
	C240.985794,165.067947 241.007767,169.106369 241.054886,173.615417 
z"/>
<path fill="#DAB9B9" opacity="1.000000" stroke="none" 
	d="
M182.988724,200.967087 
	C190.677704,201.001450 198.366699,201.035812 206.521622,201.031387 
	C211.473022,201.042236 215.971786,200.895172 220.440140,201.197617 
	C224.775803,201.491043 226.648376,199.855057 226.192062,195.481033 
	C226.010773,193.743362 226.162292,191.970947 226.358749,190.217606 
	C227.544189,201.830048 227.544189,201.834534 216.221832,201.845627 
	C185.813843,201.875443 155.405869,201.901077 124.536758,201.903198 
	C124.257759,201.661362 124.455742,201.460342 124.833092,201.139679 
	C130.686768,200.997086 136.376953,200.989731 142.534760,200.956818 
	C148.023026,200.952255 153.043625,200.973221 158.999115,200.993118 
	C167.618896,200.983719 175.303802,200.975403 182.988724,200.967087 
z"/>
<path fill="#E84545" opacity="1.000000" stroke="none" 
	d="
M164.036163,251.481140 
	C164.965469,254.310104 165.793121,256.796509 166.751831,259.676575 
	C164.373535,259.676575 162.355148,259.676575 159.499466,259.676575 
	C160.854095,256.465515 162.076050,253.566284 163.313553,250.673691 
	C163.325684,250.645325 163.577637,250.664963 163.657394,250.732910 
	C163.777664,250.835388 163.844803,251.000244 164.036163,251.481140 
z"/>
<path fill="#E5E6E7" opacity="1.000000" stroke="none" 
	d="
M182.909500,200.626617 
	C175.303802,200.975403 167.618896,200.983719 159.465149,200.967072 
	C156.389740,196.558609 153.783173,192.175140 151.091980,187.456146 
	C158.698380,187.067184 166.389420,187.013718 174.543701,187.039459 
	C177.614716,191.507843 180.222504,195.897003 182.909500,200.626617 
z"/>
<path fill="#DBDDDD" opacity="1.000000" stroke="none" 
	d="
M240.478439,103.932800 
	C240.949539,110.299629 240.962006,116.674011 240.511169,123.520828 
	C235.574783,123.993263 231.101730,123.993279 226.628662,123.993294 
	C226.531281,117.670563 226.433914,111.347832 226.356415,104.564369 
	C230.924149,104.049210 235.471970,103.994781 240.478439,103.932800 
z"/>
<path fill="#DFE0E1" opacity="1.000000" stroke="none" 
	d="
M226.515472,124.449883 
	C231.101730,123.993279 235.574783,123.993263 240.507721,123.988159 
	C240.975433,130.008606 240.983276,136.034164 240.527344,142.528717 
	C235.579865,142.998459 231.096146,142.999176 226.612442,142.999878 
	C226.542389,136.968750 226.472336,130.937607 226.515472,124.449883 
z"/>
<path fill="#E5E6E7" opacity="1.000000" stroke="none" 
	d="
M226.502838,143.456528 
	C231.096146,142.999176 235.579865,142.998459 240.525681,142.996735 
	C240.986191,148.692856 240.984589,154.389999 240.973419,160.558319 
	C236.466309,161.029007 231.968781,161.028488 227.045853,161.034943 
	C226.544708,155.332352 226.468979,149.622772 226.502838,143.456528 
z"/>
</svg>